<svg id="Слой_1" data-name="Слой 1" xmlns="http://www.w3.org/2000/svg" xmlns:xlink="http://www.w3.org/1999/xlink" viewBox="0 0 3925.22 2972.91">
  <defs>
    <style>
      .cls-1, .cls-7 {
        fill: #2e508f;
      }

      .cls-1, .cls-19, .cls-2, .cls-20, .cls-3, .cls-33, .cls-34, .cls-4, .cls-5, .cls-6 {
        stroke: #1d1d1b;
      }

      .cls-1, .cls-19, .cls-2, .cls-20, .cls-3, .cls-33, .cls-34, .cls-37, .cls-38, .cls-39, .cls-4, .cls-5, .cls-6 {
        stroke-miterlimit: 10;
      }

      .cls-1, .cls-19, .cls-2, .cls-20, .cls-3, .cls-4, .cls-5, .cls-6 {
        stroke-width: 4px;
      }

      .cls-2, .cls-8 {
        fill: #b4c8d8;
      }

      .cls-3, .cls-9 {
        fill: #6884a5;
      }

      .cls-33, .cls-34, .cls-37, .cls-38, .cls-39, .cls-4, .cls-5 {
        fill: none;
      }

      .cls-34, .cls-39, .cls-5 {
        stroke-linecap: round;
      }

      .cls-21, .cls-6 {
        fill: #1d3869;
      }

      .cls-10 {
        fill: url(#Безымянный_градиент_27);
      }

      .cls-11 {
        fill: url(#Безымянный_градиент_29);
      }

      .cls-12 {
        fill: url(#Безымянный_градиент_28);
      }

      .cls-13 {
        fill: url(#Безымянный_градиент_7);
      }

      .cls-14 {
        fill: url(#Безымянный_градиент_12);
      }

      .cls-15 {
        fill: url(#Безымянный_градиент_6);
      }

      .cls-16 {
        fill: url(#Безымянный_градиент_12-2);
      }

      .cls-17 {
        fill: url(#Безымянный_градиент_6-2);
      }

      .cls-18 {
        fill: url(#Безымянный_градиент_12-3);
      }

      .cls-19, .cls-22 {
        fill: #f3c093;
      }

      .cls-20, .cls-23 {
        fill: #bf9e73;
      }

      .cls-24 {
        fill: url(#Безымянный_градиент_35);
      }

      .cls-25 {
        fill: url(#Безымянный_градиент_35-2);
      }

      .cls-26 {
        fill: url(#Безымянный_градиент_36);
      }

      .cls-27 {
        fill: url(#Безымянный_градиент_54);
      }

      .cls-28 {
        fill: url(#Безымянный_градиент_57);
      }

      .cls-29 {
        fill: url(#Безымянный_градиент_42);
      }

      .cls-30 {
        fill: url(#Безымянный_градиент_44);
      }

      .cls-31 {
        fill: url(#Безымянный_градиент_46);
      }

      .cls-32 {
        fill: url(#Безымянный_градиент_44-2);
      }

      .cls-33, .cls-38 {
        stroke-width: 10px;
      }

      .cls-34, .cls-37, .cls-39 {
        stroke-width: 5px;
      }

      .cls-35 {
        fill: #1d1d1b;
      }

      .cls-36 {
        fill: #fff;
      }

      .cls-37 {
        stroke: #000;
      }

      .cls-38, .cls-39 {
        stroke: #fff;
      }
    </style>
    <radialGradient id="Безымянный_градиент_27" data-name="Безымянный градиент 27" cx="3173.74" cy="545.79" r="173.48" gradientUnits="userSpaceOnUse">
      <stop offset="0" stop-color="#2e508f"/>
      <stop offset="0.42" stop-color="#2d4f8d"/>
      <stop offset="0.63" stop-color="#2b4b85"/>
      <stop offset="0.79" stop-color="#274478"/>
      <stop offset="0.93" stop-color="#223a65"/>
      <stop offset="1" stop-color="#1e3459"/>
    </radialGradient>
    <radialGradient id="Безымянный_градиент_29" data-name="Безымянный градиент 29" cx="3414.71" cy="112.71" r="186.31" xlink:href="#Безымянный_градиент_27"/>
    <radialGradient id="Безымянный_градиент_28" data-name="Безымянный градиент 28" cx="3810.47" cy="716.54" r="182.47" xlink:href="#Безымянный_градиент_27"/>
    <linearGradient id="Безымянный_градиент_7" data-name="Безымянный градиент 7" x1="3707.15" y1="722.16" x2="3348.57" y2="714.25" gradientUnits="userSpaceOnUse">
      <stop offset="0" stop-color="#b4c8d8"/>
      <stop offset="0.2" stop-color="#aec3d4"/>
      <stop offset="0.47" stop-color="#9eb4c9"/>
      <stop offset="0.77" stop-color="#829cb7"/>
      <stop offset="1" stop-color="#6884a5"/>
    </linearGradient>
    <radialGradient id="Безымянный_градиент_12" data-name="Безымянный градиент 12" cx="3314.53" cy="545.79" r="217.23" gradientUnits="userSpaceOnUse">
      <stop offset="0" stop-color="#b4c8d8"/>
      <stop offset="0" stop-color="#b4c8d8"/>
      <stop offset="0.67" stop-color="#7d97b3"/>
      <stop offset="1" stop-color="#6884a5"/>
    </radialGradient>
    <linearGradient id="Безымянный_градиент_6" data-name="Безымянный градиент 6" x1="3373.01" y1="585.18" x2="3518.83" y2="278.49" gradientUnits="userSpaceOnUse">
      <stop offset="0" stop-color="#b4c8d8"/>
      <stop offset="1" stop-color="#6884a5"/>
    </linearGradient>
    <radialGradient id="Безымянный_градиент_12-2" cx="3462.44" cy="397.08" r="231.75" gradientTransform="translate(2075.1 -2800.02) rotate(60)" xlink:href="#Безымянный_градиент_12"/>
    <linearGradient id="Безымянный_градиент_6-2" x1="3647.3" y1="405.46" x2="3786.98" y2="630.14" xlink:href="#Безымянный_градиент_6"/>
    <radialGradient id="Безымянный_градиент_12-3" cx="3756.08" cy="580.44" r="162.36" gradientTransform="translate(793.44 -1800.28) rotate(30)" xlink:href="#Безымянный_градиент_12"/>
    <radialGradient id="Безымянный_градиент_35" data-name="Безымянный градиент 35" cx="3172.71" cy="1612.01" r="159.54" gradientUnits="userSpaceOnUse">
      <stop offset="0" stop-color="#164973"/>
      <stop offset="1" stop-color="#1d3869"/>
    </radialGradient>
    <radialGradient id="Безымянный_градиент_35-2" cx="3413.69" cy="1178.93" r="164.69" xlink:href="#Безымянный_градиент_35"/>
    <radialGradient id="Безымянный_градиент_36" data-name="Безымянный градиент 36" cx="3671.6" cy="1612.01" r="155.07" xlink:href="#Безымянный_градиент_35"/>
    <linearGradient id="Безымянный_градиент_54" data-name="Безымянный градиент 54" x1="3407.37" y1="1782.75" x2="3705.68" y2="1782.75" gradientUnits="userSpaceOnUse">
      <stop offset="0" stop-color="#bf9e73"/>
      <stop offset="0.01" stop-color="#c09e73"/>
      <stop offset="0.4" stop-color="#dcb185"/>
      <stop offset="0.75" stop-color="#edbc8f"/>
      <stop offset="1" stop-color="#f3c093"/>
    </linearGradient>
    <radialGradient id="Безымянный_градиент_57" data-name="Безымянный градиент 57" cx="3317.08" cy="1600.26" fy="1611.9995283979324" r="105.75" gradientUnits="userSpaceOnUse">
      <stop offset="0" stop-color="#f3c093"/>
      <stop offset="0.51" stop-color="#d6ad81"/>
      <stop offset="1" stop-color="#bf9e73"/>
    </radialGradient>
    <linearGradient id="Безымянный_градиент_42" data-name="Безымянный градиент 42" x1="3348.85" y1="1657.4" x2="3484.39" y2="1423.68" gradientUnits="userSpaceOnUse">
      <stop offset="0" stop-color="#f3c093"/>
      <stop offset="0.28" stop-color="#e9b98d"/>
      <stop offset="0.77" stop-color="#cea87c"/>
      <stop offset="1" stop-color="#bf9e73"/>
    </linearGradient>
    <radialGradient id="Безымянный_градиент_44" data-name="Безымянный градиент 44" cx="3461.42" cy="1463.29" r="79.33" gradientTransform="translate(2997.96 -2266.03) rotate(60)" xlink:href="#Безымянный_градиент_42"/>
    <linearGradient id="Безымянный_градиент_46" data-name="Безымянный градиент 46" x1="3656.47" y1="1472.01" x2="3786.36" y2="1702.1" xlink:href="#Безымянный_градиент_42"/>
    <radialGradient id="Безымянный_градиент_44-2" data-name="Безымянный градиент 44" cx="3755.06" cy="1646.66" r="62.07" gradientTransform="translate(1326.41 -1656.92) rotate(30)" xlink:href="#Безымянный_градиент_42"/>
  </defs>
  <title>logo</title>
  <g>
    <circle class="cls-1" cx="113.74" cy="545.79" r="110.71"/>
    <circle class="cls-1" cx="354.71" cy="112.71" r="110.71"/>
    <circle class="cls-1" cx="612.62" cy="545.79" r="110.71"/>
    <g>
      <path class="cls-2" d="M392.37,665.86c-9.91,0-17.94,22.69-17.94,50.68s8,50.68,17.94,50.68c3.55,0,6.86-2.93,9.64-8,30.78-30.78,10.68-30.84,218.65-30.84,9.42,0,9.19-24.44-.23-24.44-210.5,0-188.54-.28-218.42-30.16C399.23,668.78,395.92,665.86,392.37,665.86Z" transform="translate(-137.84 -170.75)"/>
      <ellipse class="cls-3" cx="254.53" cy="545.79" rx="17.94" ry="50.68"/>
      <path class="cls-4" d="M403.14,716.54" transform="translate(-137.84 -170.75)"/>
      <path class="cls-5" d="M387.88,754.66c-1.8-18.39,7-31.69,17.79-31.69" transform="translate(-137.84 -170.75)"/>
    </g>
    <g>
      <path class="cls-2" d="M446.34,422.42c5-8.58-10.69-26.88-34.93-40.87s-47.91-18.39-52.86-9.81c-1.77,3.07-.89,7.4,2.07,12.33,11.27,42,21.37,24.67-82.61,204.77-4.71,8.16,16.57,20.19,21.28,12,105.25-182.3,94.51-163.14,135.33-174.08C440.37,426.9,444.56,425.5,446.34,422.42Z" transform="translate(-137.84 -170.75)"/>
      <ellipse class="cls-3" cx="402.44" cy="397.08" rx="17.94" ry="50.68" transform="translate(-280.5 376.32) rotate(-60)"/>
      <path class="cls-4" d="M397.06,406.41" transform="translate(-137.84 -170.75)"/>
      <path class="cls-5" d="M371.67,374.13c16.83,7.64,23.94,21.93,18.56,31.25" transform="translate(-137.84 -170.75)"/>
    </g>
    <g>
      <path class="cls-2" d="M652.19,605.78c4.95,8.58,28.62,4.19,52.86-9.8s39.88-32.3,34.92-40.88c-1.77-3.07-6-4.47-11.71-4.37-42-11.27-32,6.17-136-173.94-4.71-8.15-25.77,4.26-21.06,12.42,105.26,182.3,94,163.42,83.09,204.24C651.3,598.38,650.41,602.71,652.19,605.78Z" transform="translate(-137.84 -170.75)"/>
      <ellipse class="cls-3" cx="696.08" cy="580.44" rx="50.68" ry="17.94" transform="translate(-334.8 255.06) rotate(-30)"/>
      <path class="cls-4" d="M690.7,571.12" transform="translate(-137.84 -170.75)"/>
      <path class="cls-5" d="M731.34,565.27c-15,10.75-31,9.76-36.34.44" transform="translate(-137.84 -170.75)"/>
    </g>
    <g>
      <circle class="cls-6" cx="275.5" cy="439.91" r="38.91"/>
      <circle class="cls-6" cx="360.2" cy="287.69" r="38.91"/>
      <circle class="cls-6" cx="450.86" cy="439.91" r="38.91"/>
      <g>
        <path class="cls-2" d="M462.83,592.84c-3.48,0-6.3,8-6.3,17.82s2.82,17.81,6.3,17.81c1.25,0,2.41-1,3.39-2.8,10.82-10.82,3.76-10.84,76.85-10.84,3.31,0,3.23-8.59-.08-8.59-74,0-66.27-.1-76.77-10.6C465.24,593.87,464.08,592.84,462.83,592.84Z" transform="translate(-137.84 -170.75)"/>
        <ellipse class="cls-3" cx="324.99" cy="439.91" rx="6.3" ry="17.81"/>
        <path class="cls-4" d="M466.62,610.66" transform="translate(-137.84 -170.75)"/>
      </g>
      <g>
        <path class="cls-2" d="M481.8,507.28c1.74-3-3.75-9.45-12.27-14.37s-16.84-6.46-18.58-3.45c-.63,1.08-.32,2.61.72,4.34,4,14.78,7.51,8.67-29,72-1.66,2.87,5.82,7.1,7.48,4.23,37-64.08,33.21-57.34,47.56-61.19C479.7,508.85,481.18,508.36,481.8,507.28Z" transform="translate(-137.84 -170.75)"/>
        <ellipse class="cls-3" cx="466.37" cy="498.37" rx="6.3" ry="17.81" transform="translate(-336.26 482.33) rotate(-60)"/>
        <path class="cls-4" d="M464.48,501.65" transform="translate(-137.84 -170.75)"/>
      </g>
      <g>
        <path class="cls-2" d="M554.15,571.73c1.75,3,10.06,1.47,18.58-3.45s14-11.35,12.28-14.37c-.62-1.08-2.1-1.57-4.12-1.53-14.78-4-11.26,2.16-47.81-61.14-1.66-2.87-9.06,1.5-7.4,4.37,37,64.07,33.05,57.43,29.2,71.78C553.84,569.12,553.53,570.65,554.15,571.73Z" transform="translate(-137.84 -170.75)"/>
        <ellipse class="cls-3" cx="569.58" cy="562.82" rx="17.81" ry="6.3" transform="translate(-342.94 189.45) rotate(-30)"/>
        <path class="cls-4" d="M567.69,559.54" transform="translate(-137.84 -170.75)"/>
      </g>
    </g>
  </g>
  <g>
    <circle class="cls-1" cx="1133.74" cy="545.79" r="110.71"/>
    <circle class="cls-1" cx="1374.71" cy="112.71" r="110.71"/>
    <circle class="cls-1" cx="1632.62" cy="545.79" r="110.71"/>
    <g>
      <path class="cls-2" d="M1412.37,665.86c-9.91,0-17.94,22.69-17.94,50.68s8,50.68,17.94,50.68c3.55,0,6.86-2.93,9.64-8,30.78-30.78,10.68-30.84,218.65-30.84,9.42,0,9.19-24.44-.23-24.44-210.5,0-188.54-.28-218.42-30.16C1419.23,668.78,1415.92,665.86,1412.37,665.86Z" transform="translate(-137.84 -170.75)"/>
      <ellipse class="cls-3" cx="1274.53" cy="545.79" rx="17.94" ry="50.68"/>
      <path class="cls-4" d="M1423.14,716.54" transform="translate(-137.84 -170.75)"/>
      <path class="cls-5" d="M1407.88,754.66c-1.8-18.39,7-31.69,17.79-31.69" transform="translate(-137.84 -170.75)"/>
    </g>
    <g>
      <path class="cls-2" d="M1466.34,422.42c5-8.58-10.69-26.88-34.93-40.87s-47.91-18.39-52.86-9.81c-1.77,3.07-.89,7.4,2.07,12.33,11.27,42,21.37,24.67-82.61,204.77-4.71,8.16,16.57,20.19,21.28,12,105.25-182.3,94.51-163.14,135.33-174.08C1460.37,426.9,1464.56,425.5,1466.34,422.42Z" transform="translate(-137.84 -170.75)"/>
      <ellipse class="cls-3" cx="1422.44" cy="397.08" rx="17.94" ry="50.68" transform="translate(229.5 1259.67) rotate(-60)"/>
      <path class="cls-4" d="M1417.06,406.41" transform="translate(-137.84 -170.75)"/>
      <path class="cls-5" d="M1391.67,374.13c16.83,7.64,23.94,21.93,18.56,31.25" transform="translate(-137.84 -170.75)"/>
    </g>
    <g>
      <path class="cls-2" d="M1672.19,605.78c5,8.58,28.62,4.19,52.86-9.8s39.88-32.3,34.92-40.88c-1.77-3.07-6-4.47-11.71-4.37-42-11.27-32,6.17-136-173.94-4.71-8.15-25.77,4.26-21.06,12.42,105.26,182.3,94,163.42,83.09,204.24C1671.3,598.38,1670.41,602.71,1672.19,605.78Z" transform="translate(-137.84 -170.75)"/>
      <ellipse class="cls-3" cx="1716.08" cy="580.44" rx="50.68" ry="17.94" transform="translate(-198.15 765.06) rotate(-30)"/>
      <path class="cls-4" d="M1710.7,571.12" transform="translate(-137.84 -170.75)"/>
      <path class="cls-5" d="M1751.34,565.27c-15,10.75-31,9.76-36.34.44" transform="translate(-137.84 -170.75)"/>
    </g>
  </g>
  <g>
    <circle class="cls-7" cx="2153.74" cy="545.79" r="110.71"/>
    <circle class="cls-7" cx="2394.71" cy="112.71" r="110.71"/>
    <circle class="cls-7" cx="2652.62" cy="545.79" r="110.71"/>
    <g>
      <path class="cls-8" d="M2432.37,665.86c-9.91,0-17.94,22.69-17.94,50.68s8,50.68,17.94,50.68c3.55,0,6.86-2.93,9.64-8,30.78-30.78,10.68-30.84,218.65-30.84,9.42,0,9.19-24.44-.23-24.44-210.5,0-188.54-.28-218.42-30.16C2439.23,668.78,2435.92,665.86,2432.37,665.86Z" transform="translate(-137.84 -170.75)"/>
      <ellipse class="cls-9" cx="2294.53" cy="545.79" rx="17.94" ry="50.68"/>
      <path class="cls-4" d="M2443.14,716.54" transform="translate(-137.84 -170.75)"/>
    </g>
    <g>
      <path class="cls-8" d="M2486.34,422.42c4.95-8.58-10.69-26.88-34.93-40.87s-47.91-18.39-52.86-9.81c-1.77,3.07-.89,7.4,2.07,12.33,11.27,42,21.37,24.67-82.61,204.77-4.71,8.16,16.57,20.19,21.28,12,105.25-182.3,94.51-163.14,135.33-174.08C2480.37,426.9,2484.56,425.5,2486.34,422.42Z" transform="translate(-137.84 -170.75)"/>
      <ellipse class="cls-9" cx="2442.44" cy="397.08" rx="17.94" ry="50.68" transform="translate(739.5 2143.01) rotate(-60)"/>
      <path class="cls-4" d="M2437.06,406.41" transform="translate(-137.84 -170.75)"/>
    </g>
    <g>
      <path class="cls-8" d="M2692.19,605.78c4.95,8.58,28.62,4.19,52.86-9.8s39.88-32.3,34.92-40.88c-1.77-3.07-6-4.47-11.71-4.37-42-11.27-32.05,6.17-136-173.94-4.71-8.15-25.77,4.26-21.06,12.42,105.26,182.3,94,163.42,83.09,204.24C2691.3,598.38,2690.41,602.71,2692.19,605.78Z" transform="translate(-137.84 -170.75)"/>
      <ellipse class="cls-9" cx="2736.08" cy="580.44" rx="50.68" ry="17.94" transform="translate(-61.5 1275.06) rotate(-30)"/>
      <path class="cls-4" d="M2730.7,571.12" transform="translate(-137.84 -170.75)"/>
    </g>
  </g>
  <g>
    <circle class="cls-10" cx="3173.74" cy="545.79" r="110.71"/>
    <circle class="cls-11" cx="3414.71" cy="112.71" r="110.71"/>
    <path class="cls-12" d="M3921.18,716.54a110.72,110.72,0,1,1-110.71-110.72,110.71,110.71,0,0,1,110.71,110.72" transform="translate(-137.84 -170.75)"/>
    <g>
      <path class="cls-13" d="M3452.37,665.86c-9.91,0-17.94,22.69-17.94,50.68s8,50.68,17.94,50.68c3.55,0,6.86-2.93,9.64-8,30.78-30.78,10.68-30.84,218.65-30.84,9.42,0,9.19-24.44-.23-24.44-210.5,0-188.54-.28-218.42-30.16C3459.23,668.78,3455.92,665.86,3452.37,665.86Z" transform="translate(-137.84 -170.75)"/>
      <ellipse class="cls-14" cx="3314.53" cy="545.79" rx="17.94" ry="50.68"/>
      <path class="cls-4" d="M3463.14,716.54" transform="translate(-137.84 -170.75)"/>
    </g>
    <g>
      <path class="cls-15" d="M3506.34,422.42c4.95-8.58-10.69-26.88-34.93-40.87s-47.91-18.39-52.86-9.81c-1.77,3.07-.89,7.4,2.07,12.33,11.27,42,21.37,24.67-82.61,204.77-4.71,8.16,16.57,20.19,21.28,12,105.25-182.3,94.51-163.14,135.33-174.08C3500.37,426.9,3504.56,425.5,3506.34,422.42Z" transform="translate(-137.84 -170.75)"/>
      <ellipse class="cls-16" cx="3462.44" cy="397.08" rx="17.94" ry="50.68" transform="translate(1249.5 3026.36) rotate(-60)"/>
      <path class="cls-4" d="M3457.06,406.41" transform="translate(-137.84 -170.75)"/>
    </g>
    <g>
      <path class="cls-17" d="M3712.19,605.78c4.95,8.58,28.62,4.19,52.86-9.8s39.88-32.3,34.92-40.88c-1.77-3.07-6-4.47-11.71-4.37-42-11.27-32.05,6.17-136-173.94-4.71-8.15-25.77,4.26-21.06,12.42,105.26,182.3,94,163.42,83.09,204.24C3711.3,598.38,3710.41,602.71,3712.19,605.78Z" transform="translate(-137.84 -170.75)"/>
      <ellipse class="cls-18" cx="3756.08" cy="580.44" rx="50.68" ry="17.94" transform="translate(75.16 1785.06) rotate(-30)"/>
      <path class="cls-4" d="M3750.7,571.12" transform="translate(-137.84 -170.75)"/>
    </g>
  </g>
  <g>
    <circle class="cls-6" cx="112.71" cy="1612.01" r="110.71"/>
    <circle class="cls-6" cx="353.69" cy="1178.93" r="110.71"/>
    <circle class="cls-6" cx="611.6" cy="1612.01" r="110.71"/>
    <g>
      <path class="cls-19" d="M391.35,1732.07c-9.91,0-17.94,22.69-17.94,50.68s8,50.68,17.94,50.68c3.55,0,6.85-2.92,9.64-8,30.78-30.78,10.68-30.84,218.65-30.84,9.42,0,9.19-24.45-.23-24.45-210.5,0-188.54-.28-218.42-30.16C398.2,1735,394.9,1732.07,391.35,1732.07Z" transform="translate(-137.84 -170.75)"/>
      <ellipse class="cls-20" cx="253.51" cy="1612.01" rx="17.94" ry="50.68"/>
      <path class="cls-4" d="M402.12,1782.75" transform="translate(-137.84 -170.75)"/>
      <path class="cls-5" d="M386.86,1820.88c-1.8-18.39,7-31.7,17.79-31.7" transform="translate(-137.84 -170.75)"/>
    </g>
    <g>
      <path class="cls-19" d="M445.32,1488.63c4.95-8.57-10.69-26.87-34.93-40.87s-47.91-18.39-52.86-9.81c-1.78,3.08-.89,7.4,2.07,12.33,11.27,42,21.37,24.67-82.62,204.77-4.71,8.16,16.58,20.19,21.29,12,105.25-182.3,94.51-163.14,135.33-174.07C439.35,1493.11,443.54,1491.71,445.32,1488.63Z" transform="translate(-137.84 -170.75)"/>
      <ellipse class="cls-20" cx="401.42" cy="1463.29" rx="17.94" ry="50.68" transform="translate(-1204.38 908.54) rotate(-60)"/>
      <path class="cls-4" d="M396,1472.62" transform="translate(-137.84 -170.75)"/>
      <path class="cls-5" d="M370.65,1440.34c16.82,7.64,23.94,21.93,18.55,31.26" transform="translate(-137.84 -170.75)"/>
    </g>
    <g>
      <path class="cls-19" d="M651.17,1672c5,8.57,28.62,4.18,52.86-9.81s39.88-32.3,34.92-40.88c-1.77-3.07-6-4.47-11.71-4.37-42-11.26-32,6.17-136-173.93-4.71-8.16-25.77,4.26-21.06,12.41,105.25,182.31,94,163.42,83.09,204.25C650.28,1664.59,649.39,1668.92,651.17,1672Z" transform="translate(-137.84 -170.75)"/>
      <ellipse class="cls-20" cx="695.06" cy="1646.66" rx="50.68" ry="17.94" transform="translate(-868.05 397.39) rotate(-30)"/>
      <path class="cls-4" d="M689.68,1637.33" transform="translate(-137.84 -170.75)"/>
      <path class="cls-5" d="M730.32,1631.48c-15,10.75-31,9.76-36.34.44" transform="translate(-137.84 -170.75)"/>
    </g>
    <g>
      <circle class="cls-6" cx="274.48" cy="1506.12" r="38.91"/>
      <circle class="cls-6" cx="359.18" cy="1353.9" r="38.91"/>
      <circle class="cls-6" cx="449.83" cy="1506.12" r="38.91"/>
      <g>
        <path class="cls-19" d="M461.81,1659.05c-3.48,0-6.3,8-6.3,17.82s2.82,17.81,6.3,17.81c1.25,0,2.41-1,3.39-2.8,10.82-10.81,3.75-10.83,76.85-10.83,3.31,0,3.23-8.6-.08-8.6-74,0-66.27-.09-76.77-10.6C464.22,1660.08,463.06,1659.05,461.81,1659.05Z" transform="translate(-137.84 -170.75)"/>
        <ellipse class="cls-20" cx="323.97" cy="1506.12" rx="6.3" ry="17.81"/>
        <path class="cls-4" d="M465.6,1676.87" transform="translate(-137.84 -170.75)"/>
      </g>
      <g>
        <path class="cls-19" d="M480.78,1573.49c1.74-3-3.76-9.45-12.28-14.37s-16.83-6.46-18.58-3.44c-.62,1.08-.31,2.6.73,4.33,4,14.78,7.51,8.67-29,72-1.65,2.87,5.83,7.1,7.48,4.23,37-64.07,33.22-57.34,47.57-61.18C478.68,1575.06,480.16,1574.57,480.78,1573.49Z" transform="translate(-137.84 -170.75)"/>
        <ellipse class="cls-20" cx="465.35" cy="1564.58" rx="6.3" ry="17.81" transform="translate(-1260.13 1014.55) rotate(-60)"/>
        <path class="cls-4" d="M463.46,1567.86" transform="translate(-137.84 -170.75)"/>
      </g>
      <g>
        <path class="cls-19" d="M553.13,1637.94c1.74,3,10.06,1.47,18.58-3.45s14-11.35,12.28-14.36c-.63-1.09-2.1-1.58-4.12-1.54-14.78-4-11.26,2.17-47.81-61.14-1.66-2.86-9.06,1.5-7.4,4.37,37,64.07,33.05,57.44,29.2,71.79C552.82,1635.34,552.51,1636.86,553.13,1637.94Z" transform="translate(-137.84 -170.75)"/>
        <ellipse class="cls-20" cx="568.56" cy="1629.03" rx="17.81" ry="6.3" transform="translate(-876.18 331.78) rotate(-30)"/>
        <path class="cls-4" d="M566.67,1625.75" transform="translate(-137.84 -170.75)"/>
      </g>
    </g>
  </g>
  <g>
    <circle class="cls-6" cx="1132.71" cy="1612.01" r="110.71"/>
    <circle class="cls-6" cx="1373.69" cy="1178.93" r="110.71"/>
    <circle class="cls-6" cx="1631.6" cy="1612.01" r="110.71"/>
    <g>
      <path class="cls-19" d="M1411.35,1732.07c-9.91,0-17.94,22.69-17.94,50.68s8,50.68,17.94,50.68c3.55,0,6.85-2.92,9.64-8,30.78-30.78,10.68-30.84,218.65-30.84,9.42,0,9.19-24.45-.23-24.45-210.5,0-188.54-.28-218.42-30.16C1418.2,1735,1414.9,1732.07,1411.35,1732.07Z" transform="translate(-137.84 -170.75)"/>
      <ellipse class="cls-20" cx="1273.51" cy="1612.01" rx="17.94" ry="50.68"/>
      <path class="cls-4" d="M1422.12,1782.75" transform="translate(-137.84 -170.75)"/>
      <path class="cls-5" d="M1406.86,1820.88c-1.8-18.39,7-31.7,17.79-31.7" transform="translate(-137.84 -170.75)"/>
    </g>
    <g>
      <path class="cls-19" d="M1465.32,1488.63c5-8.57-10.69-26.87-34.93-40.87s-47.91-18.39-52.86-9.81c-1.78,3.08-.89,7.4,2.07,12.33,11.27,42,21.37,24.67-82.62,204.77-4.71,8.16,16.58,20.19,21.29,12,105.25-182.3,94.51-163.14,135.33-174.07C1459.35,1493.11,1463.54,1491.71,1465.32,1488.63Z" transform="translate(-137.84 -170.75)"/>
      <ellipse class="cls-20" cx="1421.42" cy="1463.29" rx="17.94" ry="50.68" transform="translate(-694.38 1791.89) rotate(-60)"/>
      <path class="cls-4" d="M1416,1472.62" transform="translate(-137.84 -170.75)"/>
      <path class="cls-5" d="M1390.65,1440.34c16.82,7.64,23.94,21.93,18.55,31.26" transform="translate(-137.84 -170.75)"/>
    </g>
    <g>
      <path class="cls-19" d="M1671.17,1672c4.95,8.57,28.62,4.18,52.86-9.81s39.88-32.3,34.92-40.88c-1.77-3.07-6-4.47-11.71-4.37-42-11.26-32,6.17-136-173.93-4.71-8.16-25.77,4.26-21.06,12.41,105.25,182.31,94,163.42,83.09,204.25C1670.28,1664.59,1669.39,1668.92,1671.17,1672Z" transform="translate(-137.84 -170.75)"/>
      <ellipse class="cls-20" cx="1715.06" cy="1646.66" rx="50.68" ry="17.94" transform="translate(-731.39 907.39) rotate(-30)"/>
      <path class="cls-4" d="M1709.68,1637.33" transform="translate(-137.84 -170.75)"/>
      <path class="cls-5" d="M1750.32,1631.48c-15,10.75-31,9.76-36.34.44" transform="translate(-137.84 -170.75)"/>
    </g>
    <path class="cls-4" d="M1586.67,1625.75" transform="translate(-137.84 -170.75)"/>
  </g>
  <g>
    <circle class="cls-21" cx="2152.71" cy="1612.01" r="110.71"/>
    <circle class="cls-21" cx="2393.69" cy="1178.93" r="110.71"/>
    <circle class="cls-21" cx="2651.6" cy="1612.01" r="110.71"/>
    <g>
      <path class="cls-22" d="M2431.35,1732.07c-9.91,0-17.94,22.69-17.94,50.68s8,50.68,17.94,50.68c3.55,0,6.85-2.92,9.64-8,30.78-30.78,10.68-30.84,218.65-30.84,9.42,0,9.19-24.45-.23-24.45-210.5,0-188.54-.28-218.42-30.16C2438.2,1735,2434.9,1732.07,2431.35,1732.07Z" transform="translate(-137.84 -170.75)"/>
      <ellipse class="cls-23" cx="2293.51" cy="1612.01" rx="17.94" ry="50.68"/>
      <path class="cls-4" d="M2442.12,1782.75" transform="translate(-137.84 -170.75)"/>
    </g>
    <g>
      <path class="cls-22" d="M2485.32,1488.63c4.95-8.57-10.69-26.87-34.93-40.87s-47.91-18.39-52.86-9.81c-1.78,3.08-.89,7.4,2.07,12.33,11.27,42,21.37,24.67-82.62,204.77-4.71,8.16,16.58,20.19,21.29,12,105.25-182.3,94.51-163.14,135.33-174.07C2479.35,1493.11,2483.54,1491.71,2485.32,1488.63Z" transform="translate(-137.84 -170.75)"/>
      <ellipse class="cls-23" cx="2441.42" cy="1463.29" rx="17.94" ry="50.68" transform="translate(-184.38 2675.23) rotate(-60)"/>
      <path class="cls-4" d="M2436,1472.62" transform="translate(-137.84 -170.75)"/>
    </g>
    <g>
      <path class="cls-22" d="M2691.17,1672c4.95,8.57,28.62,4.18,52.86-9.81s39.88-32.3,34.92-40.88c-1.77-3.07-6-4.47-11.71-4.37-42-11.26-32,6.17-136-173.93-4.71-8.16-25.77,4.26-21.06,12.41,105.25,182.31,94,163.42,83.09,204.25C2690.28,1664.59,2689.39,1668.92,2691.17,1672Z" transform="translate(-137.84 -170.75)"/>
      <ellipse class="cls-23" cx="2735.06" cy="1646.66" rx="50.68" ry="17.94" transform="translate(-594.74 1417.39) rotate(-30)"/>
      <path class="cls-4" d="M2729.68,1637.33" transform="translate(-137.84 -170.75)"/>
    </g>
    <path class="cls-4" d="M2606.67,1625.75" transform="translate(-137.84 -170.75)"/>
  </g>
  <g>
    <circle class="cls-24" cx="3172.71" cy="1612.01" r="110.71"/>
    <circle class="cls-25" cx="3413.69" cy="1178.93" r="110.71"/>
    <circle class="cls-26" cx="3671.6" cy="1612.01" r="110.71"/>
    <g>
      <path class="cls-27" d="M3451.35,1732.07c-9.91,0-17.94,22.69-17.94,50.68s8,50.68,17.94,50.68c3.55,0,6.85-2.92,9.64-8,30.78-30.78,10.68-30.84,218.65-30.84,9.42,0,9.19-24.45-.23-24.45-210.5,0-188.54-.28-218.42-30.16C3458.2,1735,3454.9,1732.07,3451.35,1732.07Z" transform="translate(-137.84 -170.75)"/>
      <ellipse class="cls-28" cx="3313.51" cy="1612.01" rx="17.94" ry="50.68"/>
      <path class="cls-4" d="M3462.12,1782.75" transform="translate(-137.84 -170.75)"/>
    </g>
    <g>
      <path class="cls-29" d="M3505.32,1488.63c4.95-8.57-10.69-26.87-34.93-40.87s-47.91-18.39-52.86-9.81c-1.78,3.08-.89,7.4,2.07,12.33,11.27,42,21.37,24.67-82.62,204.77-4.71,8.16,16.58,20.19,21.29,12,105.25-182.3,94.51-163.14,135.33-174.07C3499.35,1493.11,3503.54,1491.71,3505.32,1488.63Z" transform="translate(-137.84 -170.75)"/>
      <ellipse class="cls-30" cx="3461.42" cy="1463.29" rx="17.94" ry="50.68" transform="translate(325.62 3558.58) rotate(-60)"/>
      <path class="cls-4" d="M3456,1472.62" transform="translate(-137.84 -170.75)"/>
    </g>
    <g>
      <path class="cls-31" d="M3711.17,1672c4.95,8.57,28.62,4.18,52.86-9.81s39.88-32.3,34.92-40.88c-1.77-3.07-6-4.47-11.71-4.37-42-11.26-32,6.17-136-173.93-4.71-8.16-25.77,4.26-21.06,12.41,105.25,182.31,94,163.42,83.09,204.25C3710.28,1664.59,3709.39,1668.92,3711.17,1672Z" transform="translate(-137.84 -170.75)"/>
      <ellipse class="cls-32" cx="3755.06" cy="1646.66" rx="50.68" ry="17.94" transform="translate(-458.09 1927.39) rotate(-30)"/>
      <path class="cls-4" d="M3749.68,1637.33" transform="translate(-137.84 -170.75)"/>
    </g>
    <path class="cls-4" d="M3626.67,1625.75" transform="translate(-137.84 -170.75)"/>
  </g>
  <g>
    <path d="M142.9,2857.13a110.72,110.72,0,1,1,110.72,110.72A110.72,110.72,0,0,1,142.9,2857.13" transform="translate(-137.84 -170.75)"/>
    <circle cx="356.75" cy="2253.31" r="110.71"/>
    <circle cx="614.67" cy="2686.39" r="110.71"/>
    <g>
      <path d="M394.41,2806.45c-9.91,0-17.94,22.69-17.94,50.68s8,50.69,17.94,50.69c3.55,0,6.86-2.93,9.64-8,30.78-30.78,10.69-30.84,218.65-30.84,9.42,0,9.19-24.44-.22-24.44-210.51,0-188.54-.28-218.43-30.17C401.27,2809.38,398,2806.45,394.41,2806.45Z" transform="translate(-137.84 -170.75)"/>
      <ellipse cx="256.57" cy="2686.39" rx="17.94" ry="50.68"/>
      <path class="cls-4" d="M405.18,2857.13" transform="translate(-137.84 -170.75)"/>
    </g>
    <g>
      <path d="M448.38,2563c4.95-8.58-10.68-26.88-34.93-40.88s-47.9-18.38-52.86-9.81c-1.77,3.08-.89,7.41,2.08,12.34,11.26,42,21.36,24.66-82.62,204.77-4.71,8.15,16.57,20.18,21.28,12,105.25-182.31,94.51-163.14,135.33-174.08C442.41,2567.49,446.6,2566.09,448.38,2563Z" transform="translate(-137.84 -170.75)"/>
      <ellipse cx="404.49" cy="2537.68" rx="17.94" ry="50.68" transform="translate(-2133.29 1448.39) rotate(-60)"/>
      <path class="cls-4" d="M399.1,2547" transform="translate(-137.84 -170.75)"/>
    </g>
    <g>
      <path d="M654.23,2746.38c5,8.58,28.62,4.19,52.86-9.81S747,2704.28,742,2695.7c-1.78-3.08-6-4.48-11.72-4.38-42-11.26-32,6.17-136-173.93-4.71-8.16-25.76,4.26-21,12.42,105.25,182.3,94,163.42,83.08,204.24C653.34,2739,652.46,2743.3,654.23,2746.38Z" transform="translate(-137.84 -170.75)"/>
      <ellipse cx="698.12" cy="2721.04" rx="50.68" ry="17.94" transform="translate(-1404.83 542.87) rotate(-30)"/>
      <path class="cls-4" d="M692.74,2711.71" transform="translate(-137.84 -170.75)"/>
    </g>
  </g>
  <g>
    <circle class="cls-33" cx="2155.78" cy="2686.39" r="110.71"/>
    <circle class="cls-33" cx="2396.75" cy="2253.31" r="110.71"/>
    <circle class="cls-33" cx="2654.67" cy="2686.39" r="110.71"/>
    <g>
      <path class="cls-33" d="M2434.41,2806.45c-9.91,0-17.94,22.69-17.94,50.68s8,50.69,17.94,50.69c3.55,0,6.86-2.93,9.64-8,30.78-30.78,10.69-30.84,218.65-30.84,9.42,0,9.19-24.44-.22-24.44-210.51,0-188.54-.28-218.43-30.17C2441.27,2809.38,2438,2806.45,2434.41,2806.45Z" transform="translate(-137.84 -170.75)"/>
      <ellipse class="cls-33" cx="2296.57" cy="2686.39" rx="17.94" ry="50.68"/>
      <path class="cls-33" d="M2445.18,2857.13" transform="translate(-137.84 -170.75)"/>
      <path class="cls-34" d="M2429.92,2895.26c-1.79-18.39,7-31.7,17.79-31.7" transform="translate(-137.84 -170.75)"/>
    </g>
    <g>
      <path class="cls-33" d="M2488.38,2563c4.95-8.58-10.68-26.88-34.93-40.88s-47.9-18.38-52.86-9.81c-1.77,3.08-.89,7.41,2.08,12.34,11.26,42,21.36,24.66-82.62,204.77-4.71,8.15,16.57,20.18,21.28,12,105.25-182.31,94.51-163.14,135.33-174.08C2482.41,2567.49,2486.6,2566.09,2488.38,2563Z" transform="translate(-137.84 -170.75)"/>
      <ellipse class="cls-33" cx="2444.49" cy="2537.68" rx="17.94" ry="50.68" transform="translate(-1113.29 3215.08) rotate(-60)"/>
      <path class="cls-33" d="M2439.1,2547" transform="translate(-137.84 -170.75)"/>
      <path class="cls-34" d="M2413.72,2514.72c16.82,7.65,23.93,21.94,18.55,31.26" transform="translate(-137.84 -170.75)"/>
    </g>
    <g>
      <path class="cls-33" d="M2694.23,2746.38c5,8.58,28.62,4.19,52.86-9.81s39.88-32.29,34.93-40.87c-1.78-3.08-6-4.48-11.72-4.38-42-11.26-32,6.17-136-173.93-4.71-8.16-25.76,4.26-21.05,12.42,105.25,182.3,94,163.42,83.08,204.24C2693.34,2739,2692.46,2743.3,2694.23,2746.38Z" transform="translate(-137.84 -170.75)"/>
      <ellipse class="cls-33" cx="2738.12" cy="2721.04" rx="50.68" ry="17.94" transform="translate(-1131.52 1562.87) rotate(-30)"/>
      <path class="cls-33" d="M2732.74,2711.71" transform="translate(-137.84 -170.75)"/>
      <path class="cls-34" d="M2773.39,2705.86c-15,10.75-31,9.77-36.35.44" transform="translate(-137.84 -170.75)"/>
    </g>
    <path class="cls-33" d="M2609.73,2700.14" transform="translate(-137.84 -170.75)"/>
  </g>
  <g>
    <rect class="cls-35" x="885.22" y="1969.85" width="996.94" height="996.94"/>
    <g>
      <circle class="cls-36" cx="1165.69" cy="2715.95" r="110.71"/>
      <circle class="cls-36" cx="1406.66" cy="2282.87" r="110.71"/>
      <circle class="cls-36" cx="1664.58" cy="2715.95" r="110.71"/>
      <g>
        <path class="cls-36" d="M1444.32,2836c-9.9,0-17.93,22.69-17.93,50.68s8,50.68,17.93,50.68c3.55,0,6.86-2.92,9.64-7.95,30.78-30.78,10.69-30.84,218.65-30.84,9.42,0,9.2-24.45-.22-24.45-210.51,0-188.54-.28-218.43-30.16C1451.18,2838.94,1447.87,2836,1444.32,2836Z" transform="translate(-137.84 -170.75)"/>
        <ellipse class="cls-37" cx="1306.48" cy="2715.95" rx="17.94" ry="50.68"/>
        <path class="cls-36" d="M1455.09,2886.69" transform="translate(-137.84 -170.75)"/>
        <path class="cls-37" d="M1439.83,2924.82c-1.79-18.39,7-31.7,17.79-31.7" transform="translate(-137.84 -170.75)"/>
      </g>
      <g>
        <path class="cls-36" d="M1498.29,2592.57c5-8.57-10.68-26.87-34.92-40.87s-47.91-18.39-52.86-9.81c-1.78,3.08-.9,7.4,2.07,12.33,11.26,42.05,21.36,24.67-82.62,204.77-4.71,8.16,16.57,20.19,21.28,12,105.25-182.3,94.51-163.14,135.34-174.07C1492.33,2597.05,1496.51,2595.65,1498.29,2592.57Z" transform="translate(-137.84 -170.75)"/>
        <ellipse class="cls-37" cx="1454.4" cy="2567.23" rx="17.94" ry="50.68" transform="translate(-1633.93 2372.42) rotate(-60)"/>
        <path class="cls-36" d="M1449,2576.56" transform="translate(-137.84 -170.75)"/>
        <path class="cls-37" d="M1423.63,2544.28c16.82,7.64,23.93,21.93,18.55,31.26" transform="translate(-137.84 -170.75)"/>
      </g>
      <g>
        <path class="cls-36" d="M1704.14,2775.94c5,8.58,28.62,4.18,52.86-9.81s39.88-32.3,34.93-40.88c-1.78-3.07-6-4.47-11.72-4.37-42-11.26-32,6.17-136-173.93-4.71-8.16-25.76,4.26-21,12.41,105.25,182.31,94,163.42,83.09,204.25C1703.25,2768.53,1702.37,2772.86,1704.14,2775.94Z" transform="translate(-137.84 -170.75)"/>
        <ellipse class="cls-37" cx="1748.04" cy="2750.6" rx="50.68" ry="17.94" transform="translate(-1278.95 1071.78) rotate(-30)"/>
        <path class="cls-36" d="M1742.65,2741.27" transform="translate(-137.84 -170.75)"/>
        <path class="cls-37" d="M1783.3,2735.42c-15,10.75-31,9.76-36.35.44" transform="translate(-137.84 -170.75)"/>
      </g>
      <path class="cls-36" d="M1619.64,2729.69" transform="translate(-137.84 -170.75)"/>
    </g>
  </g>
  <g>
    <rect x="2922.16" y="1969.85" width="1003.06" height="1003.06"/>
    <g>
      <circle class="cls-38" cx="3164.24" cy="2701.42" r="110.71"/>
      <circle class="cls-38" cx="3405.21" cy="2268.34" r="110.71"/>
      <circle class="cls-38" cx="3663.13" cy="2701.42" r="110.71"/>
      <g>
        <path class="cls-38" d="M3442.87,2821.48c-9.9,0-17.93,22.69-17.93,50.68s8,50.69,17.93,50.69c3.55,0,6.86-2.93,9.65-8,30.77-30.78,10.68-30.84,218.64-30.84,9.42,0,9.2-24.45-.22-24.45-210.51,0-188.54-.28-218.42-30.16C3449.73,2824.41,3446.42,2821.48,3442.87,2821.48Z" transform="translate(-137.84 -170.75)"/>
        <ellipse class="cls-38" cx="3305.03" cy="2701.42" rx="17.94" ry="50.68"/>
        <path class="cls-38" d="M3453.64,2872.16" transform="translate(-137.84 -170.75)"/>
        <path class="cls-39" d="M3438.38,2910.29c-1.79-18.39,7-31.7,17.79-31.7" transform="translate(-137.84 -170.75)"/>
      </g>
      <g>
        <path class="cls-38" d="M3496.84,2578c4.95-8.57-10.68-26.87-34.92-40.87s-47.91-18.39-52.86-9.81c-1.78,3.08-.9,7.41,2.07,12.33,11.26,42,21.36,24.67-82.62,204.78-4.71,8.15,16.57,20.18,21.28,12,105.25-182.3,94.51-163.14,135.34-174.07C3490.88,2582.52,3495.07,2581.12,3496.84,2578Z" transform="translate(-137.84 -170.75)"/>
        <ellipse class="cls-38" cx="3452.95" cy="2552.7" rx="17.94" ry="50.68" transform="translate(-622.07 4095.95) rotate(-60)"/>
        <path class="cls-38" d="M3447.56,2562" transform="translate(-137.84 -170.75)"/>
        <path class="cls-39" d="M3422.18,2529.75c16.82,7.64,23.93,21.94,18.55,31.26" transform="translate(-137.84 -170.75)"/>
      </g>
      <g>
        <path class="cls-38" d="M3702.69,2761.41c5,8.58,28.62,4.18,52.87-9.81s39.87-32.3,34.92-40.88c-1.78-3.07-6-4.47-11.72-4.37-42-11.26-32,6.17-136-173.93-4.71-8.16-25.77,4.26-21.06,12.41,105.25,182.31,94,163.42,83.09,204.25C3701.8,2754,3700.92,2758.33,3702.69,2761.41Z" transform="translate(-137.84 -170.75)"/>
        <ellipse class="cls-38" cx="3746.59" cy="2736.07" rx="50.68" ry="17.94" transform="translate(-1003.93 2069.11) rotate(-30)"/>
        <path class="cls-38" d="M3741.2,2726.74" transform="translate(-137.84 -170.75)"/>
        <path class="cls-39" d="M3781.85,2720.89c-15,10.75-31,9.76-36.35.44" transform="translate(-137.84 -170.75)"/>
      </g>
      <path class="cls-38" d="M3618.19,2715.17" transform="translate(-137.84 -170.75)"/>
    </g>
  </g>
</svg>
